<svg width="16" height="16" viewBox="0 0 16 16" fill="none" xmlns="http://www.w3.org/2000/svg">
<g clip-path="url(#clip0_59_138)">
<path d="M15.5556 5.33333C15.5556 4.50822 15.2278 3.71689 14.6443 3.13345C14.0609 2.55 13.2696 2.22222 12.4444 2.22222C11.9258 2.22222 11.4378 2.35111 11.008 2.57511C10.0827 1.31867 8.59689 0.5 6.91689 0.5C4.636 0.5 2.70578 2.00222 2.06222 4.07156C1.47609 4.20796 0.953322 4.53862 0.578918 5.00977C0.204514 5.48093 0.000484931 6.06487 0 6.66667C0.000336711 7.29807 0.224857 7.90885 0.633549 8.39015C1.04224 8.87145 1.60855 9.19199 2.23156 9.29467C2.32756 11.0498 3.77689 12.4444 5.55556 12.4444C6.52267 12.4444 7.39111 12.0298 8 11.372C8.31106 11.7102 8.68893 11.9801 9.10969 12.1647C9.53046 12.3493 9.98496 12.4446 10.4444 12.4444C12.2858 12.4444 13.7778 10.9524 13.7778 9.11111C13.7771 8.80367 13.7339 8.49781 13.6493 8.20222C14.2143 7.9649 14.6966 7.56603 15.0357 7.05565C15.3748 6.54527 15.5557 5.94611 15.5556 5.33333Z" fill="#F4BDBD"/>
<path d="M1.77779 15.1111C2.51417 15.1111 3.11112 14.5142 3.11112 13.7778C3.11112 13.0414 2.51417 12.4445 1.77779 12.4445C1.04141 12.4445 0.444458 13.0414 0.444458 13.7778C0.444458 14.5142 1.04141 15.1111 1.77779 15.1111Z" fill="#F4BDBD"/>
</g>
<defs>
<clipPath id="clip0_59_138">
<rect width="16" height="16" fill="white"/>
</clipPath>
</defs>
</svg>
